<?xml version="1.0" encoding="UTF-8" standalone="no"?>
<!-- Created with Inkscape (http://www.inkscape.org/) -->

<svg
   xmlns:dc="http://purl.org/dc/elements/1.1/"
   xmlns:cc="http://creativecommons.org/ns#"
   xmlns:rdf="http://www.w3.org/1999/02/22-rdf-syntax-ns#"
   xmlns:svg="http://www.w3.org/2000/svg"
   xmlns="http://www.w3.org/2000/svg"
   xmlns:sodipodi="http://sodipodi.sourceforge.net/DTD/sodipodi-0.dtd"
   xmlns:inkscape="http://www.inkscape.org/namespaces/inkscape"
   version="1.1"
   id="svg10"
   width="400"
   height="400"
   viewBox="0 0 400 400"
   sodipodi:docname="Wheel.svg"
   inkscape:version="0.92.2 (5c3e80d, 2017-08-06)">
  <metadata
     id="metadata16">
    <rdf:RDF>
      <cc:Work
         rdf:about="">
        <dc:format>image/svg+xml</dc:format>
        <dc:type
           rdf:resource="http://purl.org/dc/dcmitype/StillImage" />
        <dc:title />
      </cc:Work>
    </rdf:RDF>
  </metadata>
  <defs
     id="defs14" />
  <sodipodi:namedview
     pagecolor="#ffffff"
     bordercolor="#666666"
     borderopacity="1"
     objecttolerance="10"
     gridtolerance="10"
     guidetolerance="10"
     inkscape:pageopacity="0"
     inkscape:pageshadow="2"
     inkscape:window-width="1920"
     inkscape:window-height="1017"
     id="namedview12"
     showgrid="false"
     inkscape:zoom="2.125"
     inkscape:cx="382.38679"
     inkscape:cy="140.54853"
     inkscape:window-x="-8"
     inkscape:window-y="-8"
     inkscape:window-maximized="1"
     inkscape:current-layer="svg10" />
  <path
     style="fill:#450563;stroke-width:1.01411688"
     d="m 277.87571,386.142 c -27.67378,-4.26231 -48.52867,-28.87352 -48.60991,-57.36534 -0.022,-7.73801 3.12309,-20.24884 6.80552,-27.07117 3.60654,-6.68172 13.12518,-16.88919 19.65969,-21.08237 21.36409,-13.7093 50.4781,-11.41492 69.42377,5.47107 28.86432,25.72634 24.57826,72.35535 -8.48574,92.3185 -10.76387,6.49894 -26.46736,9.62776 -38.79333,7.72931 z m 27.33422,-14.4276 c 0.4768,-1.25497 0.63228,-7.59315 0.34549,-14.08482 -0.51228,-11.59651 -0.47909,-11.82976 1.89683,-13.32713 1.33003,-0.83824 4.7,-1.84115 7.48883,-2.22872 12.0131,-1.66948 15.19947,-5.61089 14.48693,-17.9197 -0.37453,-6.46996 -1.12003,-9.2415 -4.11659,-15.30465 -2.01258,-4.07218 -4.83513,-8.50865 -6.27234,-9.85884 -2.5998,-2.44239 -2.63753,-2.44613 -7.41202,-0.73488 -6.64872,2.38299 -7.38455,2.11765 -3.36694,-1.21413 4.5097,-3.73987 3.76509,-5.55237 -3.70126,-9.00952 -11.12709,-5.15216 -35.01645,-4.07193 -40.35281,1.82469 -2.17491,2.40325 -0.63117,8.27239 3.23815,12.31109 l 2.77798,2.89959 -3.50054,-0.66534 c -4.25201,-0.80817 -6.03583,-2.09871 -6.03583,-4.36676 0,-0.94062 -0.64101,-2.58684 -1.42445,-3.65828 -1.36323,-1.86432 -1.58365,-1.77458 -5.12759,2.08793 -6.24088,6.80184 -9.94431,15.59093 -10.48179,24.87558 -0.75704,13.07727 1.51566,16.1487 13.59624,18.37464 8.33731,1.53621 10.97683,3.69149 10.15347,8.29078 -0.31514,1.76046 -0.67163,6.93001 -0.79217,11.48789 -0.23107,8.73725 0.79222,11.48823 4.2733,11.48823 2.18343,0 3.00611,-2.16817 2.80384,-7.38946 -0.0818,-2.11203 0.36722,-4.35601 0.99783,-4.98664 1.28968,-1.28967 1.43676,-1.02831 3.54024,6.29139 0.97248,3.384 1.8185,4.56353 3.27324,4.56353 1.56264,0 2.1726,-1.09375 2.99777,-5.37533 1.20094,-6.23147 2.91896,-7.36187 3.39001,-2.23055 0.17919,1.95218 0.70086,3.93417 1.15924,4.40441 1.4254,1.46235 6.1208,-2.3948 6.1208,-5.02809 0,-3.48663 2.74867,-3.02209 3.54397,0.59894 0.36453,1.65969 0.38683,3.46411 0.0496,4.00983 -0.33728,0.54572 -0.32162,2.1541 0.0347,3.57416 0.8567,3.41334 5.15663,3.61451 6.41584,0.30016 z m -25.47222,-19.7825 c -1.15072,-1.38643 -0.32338,-11.87826 1.2664,-16.05969 1.57057,-4.13093 2.73846,-2.73625 3.47602,4.15105 0.38826,3.62546 1.08115,6.59175 1.53975,6.59175 0.45861,0 1.15163,-2.73811 1.54003,-6.08471 0.38841,-3.34658 1.05575,-6.0847 1.48297,-6.0847 1.6382,0 4.20295,9.12332 3.89945,13.87103 l -0.31183,4.8779 -5.91733,0.006 c -3.52152,0.004 -6.34575,-0.51004 -6.97546,-1.26875 z m -22.09425,-17.17194 c -4.89492,-0.65219 -7.09959,-2.92579 -7.09502,-7.31682 0.009,-7.93341 7.43014,-14.19992 15.11837,-12.76483 7.86391,1.46787 16.0899,14.34278 11.8639,18.56877 -1.72097,1.72097 -12.29082,2.52506 -19.88725,1.51288 z m 39.22427,-0.78552 c -4.79803,-4.79803 2.63372,-17.3608 11.41047,-19.2885 9.43359,-2.07195 19.78972,12.32432 13.17315,18.31224 -3.05234,2.76233 -22.04339,3.5165 -24.58362,0.97626 z"
     id="path202"
     inkscape:connector-curvature="0" />
  <path
     style="fill:#294691;stroke-width:1.00622129"
     d="m 327.06522,229.80513 c -31.421,-5.79291 -51.99801,-36.67144 -45.34679,-68.04889 4.37303,-20.63009 20.93994,-37.95488 41.26557,-43.1533 20.5752,-5.26224 39.90361,0.0406 54.89947,15.062 14.32894,14.35329 19.7231,32.25488 15.59323,51.74923 -5.07903,23.97464 -23.79379,41.26923 -48.52847,44.8459 -8.28146,1.19752 -9.02229,1.17866 -17.88301,-0.45494 z m 22.13685,-16.38886 c 11.68988,-6.01518 17.0101,-20.88471 11.73732,-32.80468 -1.15938,-2.62097 -4.62054,-8.33079 -7.69147,-12.68844 -8.08092,-11.46688 -9.53175,-15.17523 -9.55797,-24.43063 -0.0117,-4.28901 -0.41734,-7.79821 -0.90041,-7.79821 -1.48259,0 -14.73502,14.48726 -18.98254,20.75128 -11.18956,16.50184 -14.45259,29.11825 -10.75303,41.57602 1.97544,6.65204 8.90728,14.39401 14.85201,16.5878 5.67045,2.09258 16.03964,1.51164 21.29609,-1.19314 z m 1.25777,-19.44173 c -1.94534,-1.13306 -2.28428,-5.00841 -0.83785,-9.5799 0.50766,-1.60449 1.1955,-4.16244 1.52851,-5.68436 0.85962,-3.92865 2.37555,-3.43332 4.61912,1.50934 2.5348,5.58427 2.52486,10.27733 -0.027,12.8293 -2.27418,2.27418 -2.80705,2.36754 -5.28268,0.92562 z"
     id="path119"
     inkscape:connector-curvature="0" />
  <path
     style="fill:#046735;stroke-width:1.01026881"
     d="M 51.743214,231.63355 C 35.053628,228.60699 18.990754,216.58681 11.62006,201.60857 0.61843187,179.25178 3.9042801,154.62663 20.27265,136.76345 c 10.73273,-11.71289 22.958397,-17.54883 38.775788,-18.5097 17.477576,-1.06172 31.764001,4.50497 44.446962,17.31874 32.29691,32.62997 14.56252,87.95239 -30.816048,96.1307 -9.140173,1.64729 -11.511788,1.6394 -20.936138,-0.0697 z m 12.881324,-12.89064 c 1.58429,-1.9293 2.143594,-2.08099 3.697878,-1.00293 4.795615,3.32625 6.528417,3.76542 7.562956,1.9168 0.810908,-1.44902 1.803653,-1.65011 5.447902,-1.10363 3.782476,0.56721 4.561478,0.38385 5.151947,-1.21268 0.382609,-1.03451 1.183432,-2.2219 1.779606,-2.63863 1.651206,-1.15421 -1.388648,-2.74472 -5.280385,-2.76277 -4.509814,-0.0209 -9.171267,-2.58977 -10.356548,-5.7073 -1.06127,-2.79134 0.170638,-12.98136 1.977524,-16.35757 1.353702,-2.52941 8.261263,-5.2718 15.053678,-5.97649 4.450126,-0.46168 5.860148,-0.18769 8.29381,1.61159 3.511344,2.59604 6.736844,2.76898 9.248604,0.49585 2.01644,-1.82484 2.5408,-7.88298 0.77669,-8.97327 -0.67698,-0.4184 -0.82643,-2.61798 -0.40633,-5.98033 0.74233,-5.94142 -0.54559,-9.4506 -4.9936,-13.60601 -1.61058,-1.50464 -2.62166,-3.53647 -2.62166,-5.26837 0,-1.80635 -0.742616,-3.21659 -2.067071,-3.92542 -1.136886,-0.60844 -3.420053,-3.30513 -5.073691,-5.99265 -3.73656,-6.07268 -8.503633,-8.61058 -14.603309,-7.77453 -3.52293,0.48287 -4.608394,0.21223 -6.167148,-1.53766 -2.574093,-2.88976 -7.59118,-4.87563 -12.317683,-4.87563 -4.688591,0 -9.73547,3.11558 -13.131102,8.10619 -1.457113,2.14154 -3.043339,3.37457 -4.065114,3.15995 -7.327195,-1.539 -9.998676,-1.2938 -12.876837,1.18188 -2.474122,2.12815 -2.944921,3.30535 -3.005969,7.51613 -0.09093,6.27248 -1.891079,10.70707 -5.027805,12.3858 -3.5868,1.9196 -4.97593,7.00173 -3.124814,11.43209 1.265142,3.02792 1.277083,3.81363 0.08188,5.39056 -2.528728,3.33636 -1.799934,8.96938 1.672073,12.92377 4.448208,5.06624 9.394682,5.02366 15.099137,-0.12998 l 4.09665,-3.70108 4.721936,1.95696 c 6.172877,2.55829 9.316497,7.13143 9.316497,13.55306 0,5.51777 -1.190615,6.88771 -6.729173,7.74271 -4.539338,0.70077 -9.435128,2.9739 -9.435128,4.38075 0,0.54139 2.463234,0.98433 5.473849,0.98433 6.350426,0 8.669913,0.68867 8.669913,2.57413 0,2.34619 2.072713,2.74269 4.224919,0.80822 2.028562,-1.82336 2.112517,-1.81387 3.595507,0.40616 0.835144,1.2502 1.958396,2.2731 2.496116,2.2731 0.537721,0 1.817651,-1.0229 2.84429,-2.2731 z M 49.41912,182.60366 c -2.487185,-1.65002 -5.090436,-3.00197 -5.784998,-3.00435 -0.694563,-0.003 -1.262839,-0.45895 -1.262839,-1.0146 0,-0.55564 1.733432,-1.01026 3.852064,-1.01026 2.963174,0 4.52359,0.70092 6.762144,3.03746 4.297019,4.48513 2.068315,5.7298 -3.566371,1.99175 z m 26.291039,-2.5139 c 0,-1.24261 4.523739,-4.4682 6.314184,-4.50223 1.738213,-0.0331 2.49324,2.45108 1.010266,3.32389 -1.531451,0.90136 -7.32445,1.83332 -7.32445,1.17834 z M 46.600023,169.3953 c -1.285903,-0.4929 -2.05466,-1.35465 -1.708344,-1.91499 0.837836,-1.35566 4.256927,-1.30249 5.111031,0.0795 1.087242,1.75919 -0.860575,2.80991 -3.402687,1.8355 z m 26.826138,0.50704 c -1.025669,-1.02565 -0.945412,-8.25021 0.09882,-8.89557 1.006721,-0.62219 5.215982,2.14994 5.215982,3.43513 0,1.57399 -4.538449,6.23681 -5.314802,5.46044 z m -15.243496,-6.94443 c -0.647775,-1.68807 0.857342,-2.9899 2.373461,-2.0529 1.510497,0.93355 1.218275,3.53595 -0.397046,3.53595 -0.774024,0 -1.663412,-0.66738 -1.976415,-1.48305 z"
     id="path26"
     inkscape:connector-curvature="0" />
  <path
     style="fill:#7d001d;stroke-width:1.00556147"
     d="m 100.49885,385.87215 c -32.574875,-7.02152 -52.448243,-41.69461 -42.039047,-73.34557 7.609038,-23.13664 30.170582,-39.68476 54.105777,-39.68476 14.47755,0 30.14564,6.72743 40.72525,17.48626 31.6881,32.22491 15.19736,86.28685 -29.16128,95.60005 -8.60672,1.80702 -15.05865,1.79173 -23.6307,-0.056 z m 20.11123,-12.55153 c 12.4521,-1.96759 17.67579,-4.98538 8.62951,-4.98538 -5.67346,0 -7.62395,-0.77178 -7.62395,-3.01668 0,-2.39787 1.92985,-3.03358 12.19414,-4.0169 8.41987,-0.80662 13.47816,-2.53167 17.32554,-5.9086 2.17837,-1.91199 6.0525,-9.13783 5.30175,-9.88858 -0.28242,-0.28243 -3.32753,0.89267 -6.7669,2.61135 -6.19435,3.09536 -8.95617,3.82764 -8.94101,2.37069 0.005,-0.41479 3.00586,-4.12385 6.67012,-8.24234 7.91686,-8.89827 9.41101,-12.08866 9.41101,-20.09476 0,-6.4063 -2.9719,-16.04659 -5.62583,-18.24916 -1.34583,-1.11694 -1.44556,-0.64913 -0.83804,3.93063 0.93771,7.06876 -0.58979,6.65033 -4.466,-1.22337 -5.5463,-11.26615 -14.16488,-18.07639 -26.074,-20.60325 -6.43337,-1.36502 -16.23544,-1.45286 -18.27383,-0.16377 -1.749451,1.10637 -1.47849,1.22959 6.77706,3.08169 2.9133,0.65359 6.2488,1.95914 7.41221,2.90121 1.98728,1.60919 2.01229,1.81589 0.41326,3.41492 -0.93613,0.93613 -2.77429,1.70206 -4.08479,1.70206 -3.42638,0 -4.06903,1.83173 -0.91996,2.6221 1.76357,0.44263 4.51361,-0.0944 8.10496,-1.58302 3.42645,-1.42018 6.36929,-2.01864 7.96144,-1.61903 3.17179,0.79606 6.47691,6.09099 6.48186,10.38417 0.004,3.61956 -1.38066,4.14694 -4.19687,1.5983 -2.85996,-2.58822 -3.54587,-0.60411 -1.21014,3.50052 1.28646,2.26071 4.31276,5.02589 7.78031,7.10897 3.17915,1.90982 5.66523,4.12102 5.65285,5.02781 -0.0404,2.96672 -3.94519,10.3517 -5.24698,9.92358 -0.69689,-0.22919 -1.40622,-2.30469 -1.57628,-4.6122 -0.17007,-2.30752 -0.66307,-4.19549 -1.09554,-4.19549 -1.51424,0 -3.12029,5.16643 -3.12029,10.03747 0,6.11505 -1.22961,9.44552 -4.66161,12.62619 -2.8328,2.62536 -6.28212,3.14716 -9.48235,1.43444 -3.2671,-1.7485 -2.21388,-4.60722 3.49394,-9.48356 5.47398,-4.67657 8.6389,-10.22237 8.6389,-15.13767 0,-1.37145 -0.16192,-2.49355 -0.35983,-2.49355 -0.19792,0 -3.47856,1.62992 -7.29033,3.62206 -6.34148,3.31425 -7.35777,3.55476 -11.95828,2.83019 -14.993098,-2.36145 -23.572347,0.93903 -28.970566,11.14507 -2.943942,5.56591 -2.939325,15.56661 0.0093,21.1168 2.681969,5.0475 7.792725,9.99512 12.369053,11.97428 4.174896,1.80553 18.453543,2.08587 28.155723,0.55281 z m -0.57049,-63.23313 c 2.03998,-2.25416 1.78532,-4.94147 -0.61129,-6.45063 -1.25839,-0.79241 -2.5484,-0.59557 -5.09917,0.77812 -2.82229,1.51989 -3.80966,1.62747 -5.69189,0.62014 -3.5252,-1.88664 -3.54476,-0.61473 -0.0518,3.36361 3.71026,4.22575 8.5168,4.93443 11.45407,1.68876 z m -37.510461,-8.18908 c 1.469165,-0.78628 2.405399,-0.74661 3.482834,0.14758 1.18723,0.98531 1.907425,0.8165 3.706586,-0.86879 1.228162,-1.15046 3.489005,-2.5676 5.02409,-3.14918 3.493774,-1.3237 4.506727,-3.77364 2.422125,-5.85823 -3.723768,-3.72378 -12.797531,0.0582 -16.27542,6.78375 -2.261288,4.37286 -1.978243,4.88117 1.639785,2.94487 z"
     id="path62"
     inkscape:connector-curvature="0" />
  <path
     style="fill:#e59d17;stroke-width:1.00609982"
     d="m 186.74238,124.03346 c -21.99872,-4.78002 -40.51043,-24.88369 -43.76315,-47.526702 -5.4463,-37.912963 26.95239,-70.311641 64.86534,-64.86535 18.3947,2.642445 34.97538,14.807344 43.00666,31.553104 20.76934,43.305338 -17.09738,91.053878 -64.10885,80.838948 z m 15.40167,-13.54638 c 6.37208,-4.81097 7.47531,-7.36064 4.53787,-10.48742 -2.53288,-2.69611 -2.71415,-6.31463 -0.44209,-8.82523 2.24474,-2.48041 2.7754,-2.36051 6.32858,1.42993 2.52,2.68826 3.8203,3.26983 7.31094,3.26983 3.97066,0 4.40399,0.28503 6.68676,4.39844 3.11956,5.62123 4.09252,4.17723 4.42628,-6.56911 l 0.244,-7.85597 -4.42054,-0.60709 c -6.27252,-0.86143 -8.99908,-4.97981 -5.56825,-8.410662 1.14246,-1.14246 2.63836,-1.41233 5.38984,-0.97235 3.43028,0.54853 4.02937,0.29879 6.0329,-2.51491 2.4053,-3.377933 5.21084,-3.949674 9.59005,-1.95437 1.41177,0.64324 2.82468,0.91169 3.13983,0.59655 0.90246,-0.902459 -2.21712,-6.254016 -5.95749,-10.219987 -4.00363,-4.245069 -7.01293,-4.602127 -9.30495,-1.10404 -1.75856,2.683887 -5.24692,3.313028 -7.25203,1.307927 -2.00209,-2.002102 -1.37476,-4.327069 1.80111,-6.675096 2.67723,-1.979355 2.98184,-2.740316 2.76679,-6.91193 -0.25162,-4.881044 0.6852,-5.971683 6.71775,-7.820691 3.68978,-1.13094 0.0364,-2.565263 -8.14002,-3.195784 -8.91789,-0.687698 -9.87564,-0.196925 -9.88264,5.064064 -0.005,3.515498 -2.29162,5.176907 -5.88472,4.275095 -2.38955,-0.599739 -2.67097,-1.141682 -2.67097,-5.143642 0,-3.581287 -0.63082,-5.191739 -3.16356,-8.076359 -2.98724,-3.402284 -3.09938,-3.817251 -2.0122,-7.445958 1.54397,-5.153288 1.48981,-5.370497 -1.00601,-4.034777 -3.7435,2.003463 -10.92192,9.163496 -10.92192,10.893946 0,0.913258 0.90547,2.43577 2.01219,3.383366 2.62401,2.24675 2.55535,5.56219 -0.17538,8.468922 -2.91722,3.105253 -4.48994,2.934809 -6.36427,-0.68973 -1.65953,-3.209181 -1.83045,-3.282112 -8.0323,-3.427435 -3.56001,-0.08342 -4.23464,-0.515254 -6.0366,-3.864071 -1.11579,-2.073585 -2.33615,-3.771378 -2.71194,-3.772874 -1.0467,-0.0041 -3.01029,10.587898 -2.65232,14.307322 0.25671,2.667412 0.79739,3.35047 2.83251,3.578367 5.359,0.600111 6.73932,1.270495 7.91106,3.842196 0.99131,2.175698 0.93385,3.089485 -0.31407,4.994044 -1.27774,1.950085 -2.11547,2.235661 -5.12543,1.747211 -3.18992,-0.517655 -3.92005,-0.19819 -6.43676,2.816427 l -2.83871,3.400311 -4.78218,-1.279043 c -2.6302,-0.703467 -4.96053,-1.100699 -5.17849,-0.882732 -0.76433,0.764324 7.73261,11.194291 10.15255,12.462221 2.16429,1.133992 2.78839,0.992722 5.42855,-1.22883 3.24364,-2.72934 6.12987,-3.19791 8.02496,-1.3028 1.83112,1.83109 1.46693,3.727242 -1.36147,7.088592 -1.41284,1.67906 -2.49459,4.00815 -2.40388,5.17574 0.36715,4.72636 -0.1967,5.67626 -4.73998,7.98522 -2.57519,1.30875 -4.1983,2.67857 -3.60694,3.04406 1.74682,1.0796 12.90739,1.97925 15.73849,1.2687 2.24692,-0.56394 2.6116,-1.19755 2.6116,-4.53751 0,-4.55168 1.78736,-6.41322 5.72423,-5.9618 2.65261,0.30416 2.84642,0.65069 3.13147,5.59885 0.22911,3.97706 0.7803,5.52962 2.24066,6.31118 3.41469,1.82748 4.21007,4.56509 2.50909,8.63608 -0.84273,2.01696 -1.53224,3.83827 -1.53224,4.04737 0,1.28959 3.03465,-0.15002 7.63029,-3.61976 z M 192.7419,88.05127 c -16.86636,-6.42406 -19.16901,-27.707825 -4.07811,-37.694513 3.51015,-2.322903 5.27199,-2.775364 10.80698,-2.775364 7.82126,0 12.65553,2.469575 17.25007,8.812139 3.48602,4.812332 4.40383,9.042145 3.51156,16.183566 -1.09983,8.802922 -8.95668,15.537942 -19.04068,16.321972 -2.84285,0.22103 -6.64528,-0.16048 -8.44982,-0.8478 z m 14.53413,-2.80816 c 6.13393,-2.32408 11.31787,-10.066922 11.36201,-16.970549 0.0614,-9.600295 -8.82645,-18.175919 -18.83768,-18.175919 -6.35126,0 -9.88407,1.616637 -14.14982,6.475043 -7.72573,8.799129 -5.80225,21.236003 4.21283,27.239425 4.55413,2.72994 12.30476,3.36733 17.41266,1.432 z"
     id="path83"
     inkscape:connector-curvature="0" />
</svg>
